# xmcd
#
# Track frame offsets:
# 150
# 117198
# 217296
#
# Disc length: 4275 seconds
#
# Revision: 0
# Processed by: cddbd v1.4PL0 Copyright (c) Steve Scherf et al.
# Submitted via: MacMP3 Pro 5.0 (http://mp3.act2.co.jp/)
#
DISCID=2a10b103
DTITLE=Â<Î?Ò/≈@Â?Á∞Ì?Èu«“Í? - ÛÈÂÕ≈@‚OE‚„ÎÊÂ?
DYEAR=1900
DGENRE=
TTITLE0=‚OE‚„ÎÊÂ?
TTITLE1=ÈOÂ®Ì<sum>‚∆≈iË?≈j
TTITLE2=ÈOÂ®Ì<sum>‚∆≈i‚?≈j
EXTD=
EXTT0=
EXTT1=
EXTT2=
PLAYORDER=
